<?xml version="1.0" encoding="UTF-8"?>
<svg width="70px" height="53px" viewBox="0 0 70 53" version="1.1" xmlns="http://www.w3.org/2000/svg" xmlns:xlink="http://www.w3.org/1999/xlink">
    <!-- Generator: Sketch 63.1 (92452) - https://sketch.com -->
    <title>Shape</title>
    <desc>Created with Sketch.</desc>
    <g id="Page-1" stroke="none" stroke-width="1" fill="none" fill-rule="evenodd">
        <g id="Splash" transform="translate(-361.000000, -691.000000)" fill="#662D91" fill-rule="nonzero">
            <g id="cards" transform="translate(246.000000, 652.000000)">
                <g id="movies-card">
                    <path d="M181.71875,39 L180.625,39 L180.625,41.734375 C180.625,42.6367188 179.886719,43.375 178.984375,43.375 L173.515625,43.375 C172.613281,43.375 171.875,42.6367188 171.875,41.734375 L171.875,39 L128.125,39 L128.125,41.734375 C128.125,42.6367188 127.386719,43.375 126.484375,43.375 L121.015625,43.375 C120.113281,43.375 119.375,42.6367188 119.375,41.734375 L119.375,39 L118.28125,39 C116.462891,39 115,40.4628906 115,42.28125 L115,88.21875 C115,90.0371094 116.462891,91.5 118.28125,91.5 L119.375,91.5 L119.375,88.765625 C119.375,87.8632812 120.113281,87.125 121.015625,87.125 L126.484375,87.125 C127.386719,87.125 128.125,87.8632812 128.125,88.765625 L128.125,91.5 L171.875,91.5 L171.875,88.765625 C171.875,87.8632812 172.613281,87.125 173.515625,87.125 L178.984375,87.125 C179.886719,87.125 180.625,87.8632812 180.625,88.765625 L180.625,91.5 L181.71875,91.5 C183.537109,91.5 185,90.0371094 185,88.21875 L185,42.28125 C185,40.4628906 183.537109,39 181.71875,39 Z M128.125,81.109375 C128.125,82.0117188 127.386719,82.75 126.484375,82.75 L121.015625,82.75 C120.113281,82.75 119.375,82.0117188 119.375,81.109375 L119.375,75.640625 C119.375,74.7382812 120.113281,74 121.015625,74 L126.484375,74 C127.386719,74 128.125,74.7382812 128.125,75.640625 L128.125,81.109375 Z M128.125,67.984375 C128.125,68.8867188 127.386719,69.625 126.484375,69.625 L121.015625,69.625 C120.113281,69.625 119.375,68.8867188 119.375,67.984375 L119.375,62.515625 C119.375,61.6132812 120.113281,60.875 121.015625,60.875 L126.484375,60.875 C127.386719,60.875 128.125,61.6132812 128.125,62.515625 L128.125,67.984375 Z M128.125,54.859375 C128.125,55.7617188 127.386719,56.5 126.484375,56.5 L121.015625,56.5 C120.113281,56.5 119.375,55.7617188 119.375,54.859375 L119.375,49.390625 C119.375,48.4882812 120.113281,47.75 121.015625,47.75 L126.484375,47.75 C127.386719,47.75 128.125,48.4882812 128.125,49.390625 L128.125,54.859375 Z M165.3125,83.296875 C165.3125,84.1992188 164.574219,84.9375 163.671875,84.9375 L136.328125,84.9375 C135.425781,84.9375 134.6875,84.1992188 134.6875,83.296875 L134.6875,70.171875 C134.6875,69.2695312 135.425781,68.53125 136.328125,68.53125 L163.671875,68.53125 C164.574219,68.53125 165.3125,69.2695312 165.3125,70.171875 L165.3125,83.296875 Z M165.3125,60.328125 C165.3125,61.2304688 164.574219,61.96875 163.671875,61.96875 L136.328125,61.96875 C135.425781,61.96875 134.6875,61.2304688 134.6875,60.328125 L134.6875,47.203125 C134.6875,46.3007812 135.425781,45.5625 136.328125,45.5625 L163.671875,45.5625 C164.574219,45.5625 165.3125,46.3007812 165.3125,47.203125 L165.3125,60.328125 Z M180.625,81.109375 C180.625,82.0117188 179.886719,82.75 178.984375,82.75 L173.515625,82.75 C172.613281,82.75 171.875,82.0117188 171.875,81.109375 L171.875,75.640625 C171.875,74.7382812 172.613281,74 173.515625,74 L178.984375,74 C179.886719,74 180.625,74.7382812 180.625,75.640625 L180.625,81.109375 Z M180.625,67.984375 C180.625,68.8867188 179.886719,69.625 178.984375,69.625 L173.515625,69.625 C172.613281,69.625 171.875,68.8867188 171.875,67.984375 L171.875,62.515625 C171.875,61.6132812 172.613281,60.875 173.515625,60.875 L178.984375,60.875 C179.886719,60.875 180.625,61.6132812 180.625,62.515625 L180.625,67.984375 Z M180.625,54.859375 C180.625,55.7617188 179.886719,56.5 178.984375,56.5 L173.515625,56.5 C172.613281,56.5 171.875,55.7617188 171.875,54.859375 L171.875,49.390625 C171.875,48.4882812 172.613281,47.75 173.515625,47.75 L178.984375,47.75 C179.886719,47.75 180.625,48.4882812 180.625,49.390625 L180.625,54.859375 Z" id="Shape"></path>
                </g>
            </g>
        </g>
    </g>
</svg>