<?xml version="1.0" encoding="UTF-8"?>
<svg width="70px" height="70px" viewBox="0 0 70 70" version="1.1" xmlns="http://www.w3.org/2000/svg" xmlns:xlink="http://www.w3.org/1999/xlink">
    <!-- Generator: Sketch 63.1 (92452) - https://sketch.com -->
    <title>Path</title>
    <desc>Created with Sketch.</desc>
    <g id="Page-1" stroke="none" stroke-width="1" fill="none" fill-rule="evenodd">
        <g id="Splash" transform="translate(-685.000000, -677.000000)" fill="#662D91" fill-rule="nonzero">
            <g id="cards" transform="translate(246.000000, 652.000000)">
                <g id="music-card" transform="translate(324.000000, 0.000000)">
                    <path d="M184.998633,29.3776056 C184.998633,26.4094415 182.113867,24.3176447 179.311133,25.2063165 L135.5625,38.1262384 C133.744141,38.7004572 132.5,40.3820978 132.5,42.2961603 L132.5,78.0371759 C131.125977,77.7117853 129.667188,77.5012384 128.125,77.5012384 C120.876172,77.5012384 115,81.4182306 115,86.2512384 C115,91.0842462 120.876172,95.0012384 128.125,95.0012384 C135.373828,95.0012384 141.25,91.0842462 141.25,86.2512384 L141.25,54.3014337 L176.25,44.0447931 L176.25,69.2871759 C174.875977,68.9617853 173.417188,68.7512384 171.875,68.7512384 C164.626172,68.7512384 158.75,72.6682306 158.75,77.5012384 C158.75,82.3342462 164.626172,86.2512384 171.875,86.2512384 C179.123828,86.2512384 185,82.3342462 185,77.5012384 L184.998633,29.3776056 Z" id="Path"></path>
                </g>
            </g>
        </g>
    </g>
</svg>