<svg id="Layer_1" data-name="Layer 1" xmlns="http://www.w3.org/2000/svg" viewBox="0 0 448 512"><defs><style>.cls-1{fill:#fff;}</style></defs><path class="cls-1" d="M64,224H77.5a159.78,159.78,0,0,0,293,0H384a16,16,0,0,0,16-16V112a16,16,0,0,0-16-16H370.5a159.78,159.78,0,0,0-293,0H64a16,16,0,0,0-16,16v96A16,16,0,0,0,64,224Zm40-88c0-22.1,21.5-40,48-40H296c26.5,0,48,17.9,48,40v24a96,96,0,0,1-96,96H200a96,96,0,0,1-96-96Zm72,72,12-36,36-12-36-12-12-36-12,36-36,12,36,12ZM327.6,321.4a190.68,190.68,0,0,1-207.2,0C52.9,328.5,0,385,0,454.4V464a48,48,0,0,0,48,48h80V448a32,32,0,0,1,32-32H288a32,32,0,0,1,32,32v64h80a48,48,0,0,0,48-48v-9.6C448,385,395.1,328.5,327.6,321.4ZM272,448a16,16,0,1,0,16,16A16,16,0,0,0,272,448Zm-96,0a16,16,0,0,0-16,16v48h32V464A16,16,0,0,0,176,448Z"/></svg>